<svg xmlns="http://www.w3.org/2000/svg" viewBox="0 0 200 200">
<path fill="#00BFA5" class="st0" d="M144.9,69.4L144.9,69.4c-0.1,0-0.2-0.1-0.2-0.1c-0.1-0.1-0.2-0.3-0.1-0.5l4-24.6l18.9,18.9l-19.7,8.4c-0.1,0-0.1,0-0.2,0h-0.1c0,0-0.1-0.1-0.1-0.1C146.7,70.6,145.9,69.9,144.9,69.4L144.9,69.4z M172.3,67.9l20.2,20.2c4.2,4.2,6.3,6.3,7.1,8.7c0.1,0.4,0.2,0.7,0.3,1.1l-48.3-20.5c0,0-0.1,0-0.1,0c-0.2-0.1-0.4-0.2-0.4-0.4c0-0.2,0.2-0.3,0.4-0.4l0.1,0L172.3,67.9z M199.1,104.4c-1,2-3.1,4-6.5,7.4l-22.8,22.8l-29.5-6.1l-0.2,0c-0.3,0-0.5-0.1-0.5-0.3c-0.2-2.5-1.5-4.7-3.4-6.2c-0.1-0.1-0.1-0.3-0.1-0.5c0,0,0-0.1,0-0.1l5.5-34l0-0.1c0-0.3,0.1-0.6,0.3-0.6c2.4-0.3,4.6-1.6,6-3.5c0-0.1,0.1-0.1,0.1-0.1c0.2-0.1,0.4,0,0.5,0.1L199.1,104.4L199.1,104.4z M164.5,139.9L127,177.4l6.4-39.4l0-0.1c0-0.1,0-0.1,0-0.1c0.1-0.1,0.2-0.2,0.3-0.2l0.1,0c1.4-0.6,2.7-1.5,3.6-2.7c0.1-0.1,0.3-0.3,0.5-0.3c0,0,0.1,0,0.1,0L164.5,139.9L164.5,139.9z M119.1,185.3l-4.2,4.2L68.2,122c0,0,0,0-0.1-0.1c-0.1-0.1-0.1-0.2-0.1-0.3c0-0.1,0.1-0.2,0.1-0.2l0.1-0.1c0.1-0.2,0.3-0.4,0.4-0.6l0.1-0.2l0,0c0.1-0.1,0.1-0.2,0.3-0.3c0.1-0.1,0.3,0,0.4,0l51.7,10.7c0.1,0,0.3,0.1,0.4,0.2c0.1,0.1,0.1,0.1,0.1,0.2c0.7,2.8,2.7,5,5.4,6.1c0.1,0.1,0.1,0.2,0,0.4c0,0.1-0.1,0.2-0.1,0.2L119.1,185.3L119.1,185.3z M110.3,194.1c-3.1,3.1-4.9,4.7-7,5.4c-2,0.6-4.2,0.6-6.3,0c-2.4-0.8-4.5-2.9-8.7-7.1l-46.9-46.9l12.2-19c0.1-0.1,0.1-0.2,0.2-0.2c0.1-0.1,0.3-0.1,0.5,0c2.8,0.8,5.8,0.7,8.5-0.4c0.1-0.1,0.3-0.1,0.4,0c0.1,0,0.1,0.1,0.1,0.2L110.3,194.1L110.3,194.1z M36.8,141L26,130.2l21.2-9.1c0.1,0,0.1,0,0.2,0c0.2,0,0.3,0.2,0.4,0.3c0.2,0.3,0.4,0.6,0.7,1l0.1,0.1c0.1,0.1,0,0.2,0,0.3C48.5,122.8,36.8,141,36.8,141z M21.3,125.5L7.6,111.9c-2.3-2.3-4-4-5.2-5.4l41.4,8.6c0.1,0,0.1,0,0.2,0c0.3,0,0.5,0.1,0.5,0.3c0,0.3-0.3,0.4-0.6,0.5l-0.1,0.1L21.3,125.5z M0.1,99.4c0-0.9,0.2-1.7,0.5-2.6c0.8-2.4,2.9-4.5,7.1-8.7l17.4-17.4c8,11.6,16.1,23.3,24.1,34.9c0.1,0.2,0.3,0.4,0.1,0.6c-0.8,0.8-1.5,1.8-2.1,2.7c-0.1,0.1-0.1,0.2-0.3,0.3c-0.1,0-0.1,0-0.2,0h0L0.1,99.4L0.1,99.4z M29.7,66l23.4-23.4c2.2,1,10.2,4.3,17.4,7.4c5.4,2.3,10.4,4.4,11.9,5.1c0.2,0.1,0.3,0.1,0.4,0.3c0,0.1,0,0.2,0,0.3c-0.8,3.4,0.3,7,2.7,9.5c0.2,0.2,0,0.4-0.1,0.6l-0.1,0.1l-23.8,36.8c-0.1,0.1-0.1,0.2-0.2,0.3c-0.1,0.1-0.3,0-0.4,0c-0.9-0.2-1.9-0.4-2.8-0.4c-0.9,0-1.8,0.2-2.7,0.3c-0.1,0-0.2,0-0.3,0c-0.1-0.1-0.2-0.2-0.2-0.3L29.7,66z M57.9,37.9L88.2,7.5c4.2-4.2,6.3-6.3,8.7-7.1c2-0.6,4.2-0.6,6.3,0c2.4,0.8,4.5,2.9,8.7,7.1l6.6,6.6L97,47.5c-0.1,0.1-0.1,0.2-0.2,0.3c-0.1,0.1-0.3,0.1-0.5,0c-3.5-1.1-7.2-0.3-10,1.9c-0.1,0.1-0.3,0.1-0.5,0C82.9,48.5,61,39.2,57.9,37.9z M123.1,18.7L143,38.6l-4.8,29.7v0.1c0,0.1,0,0.1,0,0.2c-0.1,0.1-0.2,0.1-0.3,0.2c-1,0.3-2,0.8-2.9,1.4c0,0-0.1,0.1-0.1,0.1c-0.1,0.1-0.1,0.1-0.2,0.1c-0.1,0-0.2,0-0.2,0l-30.3-12.9l-0.1,0c-0.2-0.1-0.4-0.2-0.4-0.4c-0.2-1.7-0.7-3.3-1.6-4.8c-0.1-0.2-0.3-0.5-0.2-0.7L123.1,18.7z M102.6,63.6l28.5,12c0.2,0.1,0.3,0.1,0.4,0.3c0,0.1,0,0.2,0,0.3c-0.1,0.5-0.2,0.9-0.2,1.4v0.8c0,0.2-0.2,0.3-0.4,0.4l-0.1,0c-21.1,9-42.2,18-63.4,27c-0.1,0-0.2,0-0.3-0.1c-0.2-0.2,0-0.4,0.1-0.6c0,0,0.1-0.1,0.1-0.1l23.4-36.2l0-0.1c0.1-0.2,0.3-0.5,0.5-0.5l0.2,0c0.5,0.1,1,0.1,1.5,0.1c3.6,0,6.8-1.7,8.8-4.7c0-0.1,0.1-0.1,0.2-0.2C102.2,63.5,102.4,63.5,102.6,63.6L102.6,63.6z M70,111.5l64.1-27.3c0,0,0.1,0,0.2,0.1c0.3,0.3,0.6,0.6,0.9,0.8l0.1,0.1c0.1,0.1,0.3,0.2,0.3,0.3c0,0.1,0,0.1,0,0.1l-5.5,33.7l0,0.1c0,0.3-0.1,0.6-0.3,0.6c-3,0.2-5.6,1.9-7.2,4.4l0,0c-0.1,0.1-0.1,0.2-0.3,0.3c-0.1,0.1-0.2,0-0.4,0l-51.1-10.5C70.8,114.2,70.1,111.5,70,111.5L70,111.5z"/>
</svg>